<svg xmlns="http://www.w3.org/2000/svg" version="1.1" xmlns:xlink="http://www.w3.org/1999/xlink" xmlns:svgjs="http://svgjs.dev/svgjs" width="1500" height="1406" viewBox="0 0 1500 1406"><g transform="matrix(1,0,0,1,0.000020664062503783498,0)"><svg viewBox="0 0 384 360" data-background-color="#ffffff" preserveAspectRatio="xMidYMid meet" height="1406" width="1500" xmlns="http://www.w3.org/2000/svg" xmlns:xlink="http://www.w3.org/1999/xlink"><g id="tight-bounds" transform="matrix(1,0,0,1,0.000005289999990054639,0)"><svg viewBox="0 0 384 360" height="360" width="384"><g><svg></svg></g><g><svg viewBox="0 0 384 360" height="360" width="384"><g><path transform="translate(-42.61557,-54.61557) scale(4.69231,4.69231)" d="M86.305 42.635v-9.002c0-4.501-4.084-8.184-9.076-8.184h-19.864c-3.239 0-6.039-1.882-7.365-4.613-1.326 2.73-4.126 4.613-7.365 4.613h-19.864c-4.992 0-9.076 3.683-9.076 8.184v9.002c0 3.239-1.882 6.039-4.613 7.365 2.73 1.326 4.613 4.126 4.613 7.365v9.002c0 4.501 4.084 8.184 9.076 8.184h19.864c3.239 0 6.039 1.882 7.365 4.613 1.326-2.73 4.126-4.613 7.365-4.613h19.864c4.992 0 9.076-3.683 9.076-8.184v-9.002c0-3.239 1.882-6.039 4.613-7.365-2.73-1.326-4.613-4.126-4.613-7.365z" fill="#233565" fill-rule="nonzero" stroke="none" stroke-width="1" stroke-linecap="butt" stroke-linejoin="miter" stroke-miterlimit="10" stroke-dasharray="" stroke-dashoffset="0" font-family="none" font-weight="none" font-size="none" text-anchor="none" style="mix-blend-mode: normal" data-fill-palette-color="tertiary"></path></g><g transform="matrix(1,0,0,1,76.80000000000001,109.84434608939318)"><svg viewBox="0 0 230.39999999999998 140.31130782121363" height="140.31130782121363" width="230.39999999999998"><g><svg viewBox="0 0 230.39999999999998 140.31130782121363" height="140.31130782121363" width="230.39999999999998"><g transform="matrix(1,0,0,1,0,86.71801724400594)"><svg viewBox="0 0 230.39999999999998 53.593290577207696" height="53.593290577207696" width="230.39999999999998"><g id="textblocktransform"><svg viewBox="0 0 230.39999999999998 53.593290577207696" height="53.593290577207696" width="230.39999999999998" id="textblock"><g><svg viewBox="0 0 230.39999999999998 53.593290577207696" height="53.593290577207696" width="230.39999999999998"><g transform="matrix(1,0,0,1,0,0)"><svg width="230.39999999999998" viewBox="1.75 -36.3 202.68 47.15" height="53.593290577207696" data-palette-color="#ffffff"><path d="M19.95-22.1L16.75-19.05Q16-19.9 15.23-20.5 14.45-21.1 13.15-21.1L13.15-21.1Q12.4-21.1 11.48-20.88 10.55-20.65 9.75-19.78 8.95-18.9 8.43-17.2 7.9-15.5 7.9-12.6L7.9-12.6Q7.9-9.65 8.43-7.93 8.95-6.2 9.78-5.25 10.6-4.3 11.55-4.03 12.5-3.75 13.4-3.75L13.4-3.75Q14.1-3.75 14.85-3.88 15.6-4 16.3-4.17 17-4.35 17.53-4.5 18.05-4.65 18.3-4.75L18.3-4.75 19.7-1.15Q19.55-1.1 19.03-0.85 18.5-0.6 17.6-0.35 16.7-0.1 15.45 0.13 14.2 0.35 12.65 0.35L12.65 0.35Q9.75 0.35 7.7-0.53 5.65-1.4 4.33-3 3-4.6 2.38-6.85 1.75-9.1 1.75-11.85L1.75-11.85Q1.75-15.15 2.63-17.7 3.5-20.25 5.05-21.98 6.6-23.7 8.7-24.6 10.8-25.5 13.2-25.5L13.2-25.5Q15.55-25.5 17.18-24.6 18.8-23.7 19.95-22.1L19.95-22.1ZM29.05 0.2Q26.2 0.2 24.85-1.38 23.5-2.95 23.5-5.4L23.5-5.4 23.5-35.25 29.2-36.3 29.2-5.95Q29.2-4.8 29.65-4.35 30.1-3.9 30.95-3.9L30.95-3.9Q31.45-3.9 31.92-3.95 32.4-4 32.8-4.1L32.8-4.1Q33.25-4.2 33.6-4.3L33.6-4.3 34.3-0.7Q33.65-0.45 32.85-0.25L32.85-0.25Q32.15-0.05 31.2 0.08 30.25 0.2 29.05 0.2L29.05 0.2ZM53.09-12.7L53.09-24.9 58.8-24.9 58.8-12.05Q58.8-9.05 59.17-7.03 59.55-5 60-3.75L60-3.75Q60.55-2.25 61.2-1.4L61.2-1.4 56.75 0.4Q56.15-0.15 55.65-1L55.65-1Q55.25-1.7 54.82-2.73 54.4-3.75 54.25-5.15L54.25-5.15Q52.9-2.2 50.45-0.95 48 0.3 45.34 0.3L45.34 0.3Q41.4 0.3 39.72-2 38.05-4.3 38.05-8.3L38.05-8.3 38.05-24.9 43.75-24.9 43.75-8.4Q43.75-6.3 44.5-5.1 45.25-3.9 47.05-3.9L47.05-3.9Q48.15-3.9 49.22-4.53 50.3-5.15 51.17-6.3 52.05-7.45 52.57-9.08 53.09-10.7 53.09-12.7L53.09-12.7ZM65.74-1.15L65.74-35.25 71.44-36.25 71.44-21Q72.34-23.05 73.97-24.18 75.59-25.3 78.14-25.3L78.14-25.3Q80.49-25.3 82.22-24.43 83.94-23.55 85.09-21.93 86.24-20.3 86.79-18 87.34-15.7 87.34-12.9L87.34-12.9Q87.34-10.05 86.47-7.63 85.59-5.2 84.02-3.45 82.44-1.7 80.24-0.7 78.04 0.3 75.39 0.3L75.39 0.3Q73.89 0.3 72.19 0.08 70.49-0.15 69.04-0.4L69.04-0.4Q67.39-0.7 65.74-1.15L65.74-1.15ZM77.19-21.3Q75.94-21.3 74.89-20.45 73.84-19.6 73.07-18.2 72.29-16.8 71.87-15.05 71.44-13.3 71.44-11.45L71.44-11.45 71.44-4.2Q71.89-4.1 72.89-3.9 73.89-3.7 74.74-3.7L74.74-3.7Q76.59-3.7 77.84-4.35 79.09-5 79.84-6.15 80.59-7.3 80.89-8.9 81.19-10.5 81.19-12.4L81.19-12.4Q81.19-14.15 81.09-15.75 80.99-17.35 80.57-18.6 80.14-19.85 79.34-20.58 78.54-21.3 77.19-21.3L77.19-21.3ZM91.59-13.9L91.59-18.05 105.74-18.05 105.74-13.9 91.59-13.9ZM126.29-12.7L126.29-24.9 131.99-24.9 131.99-12.05Q131.99-9.05 132.36-7.03 132.74-5 133.19-3.75L133.19-3.75Q133.74-2.25 134.39-1.4L134.39-1.4 129.94 0.4Q129.34-0.15 128.84-1L128.84-1Q128.44-1.7 128.01-2.73 127.59-3.75 127.44-5.15L127.44-5.15Q126.09-2.2 123.64-0.95 121.19 0.3 118.54 0.3L118.54 0.3Q114.59 0.3 112.91-2 111.24-4.3 111.24-8.3L111.24-8.3 111.24-24.9 116.94-24.9 116.94-8.4Q116.94-6.3 117.69-5.1 118.44-3.9 120.24-3.9L120.24-3.9Q121.34-3.9 122.41-4.53 123.49-5.15 124.36-6.3 125.24-7.45 125.76-9.08 126.29-10.7 126.29-12.7L126.29-12.7ZM141.28 8.75L142.69 4.4Q143.44 4.7 144.28 5.03 145.13 5.35 146.09 5.65 147.03 5.95 148.01 6.15 148.99 6.35 149.94 6.35L149.94 6.35Q152.74 6.35 153.99 4.67 155.24 3 155.24 0.35L155.24 0.35Q155.24-2.25 154.13-4.9L154.13-4.9Q153.28-2.35 151.46-1.03 149.63 0.3 146.63 0.3L146.63 0.3Q144.28 0.3 142.56-0.58 140.84-1.45 139.69-3.08 138.53-4.7 137.99-7 137.44-9.3 137.44-12.1L137.44-12.1Q137.44-14.95 138.31-17.38 139.19-19.8 140.76-21.55 142.34-23.3 144.53-24.3 146.74-25.3 149.38-25.3L149.38-25.3Q150.59-25.3 151.96-25.15 153.34-25 154.66-24.78 155.99-24.55 157.16-24.3 158.34-24.05 159.19-23.85L159.19-23.85 158.94-10.1Q158.88-8.6 159.11-7.35 159.34-6.1 159.63-4.88 159.94-3.65 160.19-2.4 160.44-1.15 160.44 0.35L160.44 0.35Q160.44 5.65 157.74 8.25 155.03 10.85 150.44 10.85L150.44 10.85Q148.94 10.85 147.44 10.58 145.94 10.3 144.66 9.95 143.38 9.6 142.49 9.25 141.59 8.9 141.28 8.75L141.28 8.75ZM147.59-3.7Q148.78-3.7 149.81-4.5 150.84-5.3 151.63-6.63 152.44-7.95 152.88-9.65 153.34-11.35 153.34-13.15L153.34-13.15 153.34-20.75Q152.84-20.9 151.84-21.1 150.84-21.3 150.03-21.3L150.03-21.3Q148.13-21.3 146.91-20.65 145.69-20 144.94-18.85 144.19-17.7 143.88-16.1 143.59-14.5 143.59-12.6L143.59-12.6Q143.59-10.85 143.69-9.25 143.78-7.65 144.21-6.4 144.63-5.15 145.44-4.42 146.24-3.7 147.59-3.7L147.59-3.7ZM176.13-19.7Q175.23-19.7 174.33-19.25 173.43-18.8 172.73-18.03 172.03-17.25 171.58-16.15 171.13-15.05 171.13-13.7L171.13-13.7 171.13 0 165.43 0 165.43-12.6Q165.43-15.6 165.03-17.63 164.63-19.65 164.18-20.9L164.18-20.9Q163.63-22.35 162.98-23.25L162.98-23.25 167.48-25.05Q167.93-24.5 168.43-23.7L168.43-23.7Q168.83-23 169.23-22.05 169.63-21.1 169.88-19.8L169.88-19.8Q170.88-22.7 172.78-23.98 174.68-25.25 177.08-25.25L177.08-25.25Q178.23-25.25 179.23-24.98 180.23-24.7 180.18-24.7L180.18-24.7 178.58-19.15Q178.63-19.15 178.01-19.43 177.38-19.7 176.13-19.7L176.13-19.7ZM202.03-23.85L202.03-12.05Q202.03-9.05 202.41-7.03 202.78-5 203.23-3.75L203.23-3.75Q203.78-2.25 204.43-1.4L204.43-1.4 199.98 0.4Q199.33-0.25 198.78-1.15L198.78-1.15Q198.33-1.95 197.93-3.08 197.53-4.2 197.43-5.75L197.43-5.75Q196.58-2.75 194.71-1.23 192.83 0.3 189.63 0.3L189.63 0.3Q187.28 0.3 185.56-0.58 183.83-1.45 182.68-3.08 181.53-4.7 180.98-7 180.43-9.3 180.43-12.1L180.43-12.1Q180.43-14.95 181.31-17.38 182.18-19.8 183.75-21.55 185.33-23.3 187.53-24.3 189.73-25.3 192.38-25.3L192.38-25.3Q193.88-25.3 195.5-25.08 197.13-24.85 198.53-24.6 199.93-24.35 200.91-24.13 201.88-23.9 202.03-23.85L202.03-23.85ZM190.58-3.7Q191.83-3.7 192.88-4.55 193.93-5.4 194.71-6.78 195.48-8.15 195.91-9.93 196.33-11.7 196.33-13.55L196.33-13.55 196.33-20.75Q195.83-20.9 194.83-21.1 193.83-21.3 193.03-21.3L193.03-21.3Q191.13-21.3 189.91-20.65 188.68-20 187.93-18.85 187.18-17.7 186.88-16.1 186.58-14.5 186.58-12.6L186.58-12.6Q186.58-10.85 186.68-9.25 186.78-7.65 187.21-6.4 187.63-5.15 188.43-4.42 189.23-3.7 190.58-3.7L190.58-3.7Z" opacity="1" transform="matrix(1,0,0,1,0,0)" fill="#ffffff" class="wordmark-text-0" data-fill-palette-color="quaternary" id="text-0"></path></svg></g></svg></g></svg></g></svg></g><g transform="matrix(1,0,0,1,63.534267349789715,0)"><svg viewBox="0 0 103.33146530042055 74.06592757770105" height="74.06592757770105" width="103.33146530042055"><g><svg xmlns="http://www.w3.org/2000/svg" xmlns:xlink="http://www.w3.org/1999/xlink" version="1.1" x="8" y="0" viewBox="0.04170607052176517 6.868812254799663 89.91518992982454 76.25718774520034" enable-background="new 0 0 90 90" xml:space="preserve" height="74.06592757770105" width="87.33146530042055" class="icon-icon-0" data-fill-palette-color="quaternary" id="icon-0"><path fill="#ffffff" d="M89.7 69.904l-1.248-0.667c-0.07-0.037-0.145-0.051-0.219-0.052-0.077-0.068-0.174-0.107-0.278-0.119L76.382 57.028l5.279-0.579c0.14-0.015 0.267-0.091 0.347-0.207s0.106-0.262 0.071-0.398l-3.898-15.058c-0.021-0.083-0.528-1.946-2.419-2.426l-1.347-3.296c-0.034-0.082-0.092-0.144-0.157-0.194l0.192-11.693c0.004-0.195-0.11-0.375-0.29-0.453l-6.183-2.712-2.78-2.89c0.463-0.614 0.952-1.126 1.439-1.404 0.203-0.116 0.294-0.361 0.218-0.583L65.02 9.86c-0.054-0.153-0.181-0.271-0.339-0.312-0.157-0.039-0.324 0-0.446 0.109-0.001 0.001-0.032 0.026-0.046 0.037-1.423-0.819-3.817-1.035-6.352-0.507-1.496 0.311-2.865 0.838-3.961 1.524-0.102 0.063-0.166 0.161-0.199 0.266-0.094 0.093-0.155 0.215-0.153 0.348l0.076 4.512c0.003 0.137 0.063 0.266 0.165 0.356 0.104 0.091 0.241 0.134 0.374 0.119 0.007-0.001 0.479-0.051 1.092-0.075 0.088 0.447 0.524 2.287 1.94 3.626l-12.745-3.187c-0.017-0.006-0.03-0.018-0.046-0.022l-2.086-0.52-5.392-2.769 0.002-3.739c0.03-0.094 0.03-0.192 0-0.29V9.244c0-0.155-0.074-0.3-0.197-0.392-0.069-0.052-0.149-0.078-0.232-0.087-1.176-1.189-3.624-1.93-6.364-1.895-1.528 0.025-2.972 0.284-4.179 0.754-0.01 0.003-0.016 0.012-0.027 0.016-0.061-0.007-0.125-0.013-0.187 0.005-0.156 0.044-0.281 0.162-0.333 0.316l-1.749 5.305c-0.073 0.222 0.023 0.466 0.228 0.579 0.501 0.276 0.998 0.776 1.463 1.37l-1.743 1.756c0 0-0.004-0.004-0.004-0.005-0.135-0.22-0.421-0.298-0.649-0.172-6.084 3.345-6.643 18.232-6.654 18.785 0 0.002-0.001 0.004-0.002 0.008l0 0c0 0 0 0 0 0.001-0.508 2.521-0.579 3.246-0.509 3.535-1.851 0.725-3.159 2.529-3.125 4.63 0.006 0.402 0.077 0.792 0.176 1.171l0.508 18.213L1.901 72.593c-0.121-0.034-0.255-0.023-0.374 0.042l-1.235 0.688c-0.195 0.107-0.291 0.335-0.234 0.55l0.625 2.342 0.632 3.646c-0.056 0.048 0.27 1.562 0.27 1.562 0.04 0.234 0.243 0.404 0.479 0.404h0.001l3.445-0.01c0.162 0 0.311-0.08 0.402-0.214 0.089-0.135 0.108-0.304 0.047-0.454l-0.894-2.218 0.532-4.039c0.003-0.002 0.007-0.001 0.009-0.003l13.836-8.502c0.982-0.511 1.187-1.869 1.558-4.336 0.104-0.693 0.223-1.477 0.375-2.349 2.136 0.18 3.352 1.136 3.442 1.209 0.109 0.091 0.253 0.131 0.391 0.104 0.14-0.022 0.263-0.104 0.335-0.226l2.115-3.485c0.035-0.006 0.071-0.007 0.106-0.02l1.219-0.463 5.521 3.894 6.104 14.769c-0.01 0.023-0.025 0.041-0.031 0.066-0.036 0.144 0.001 0.284 0.081 0.396-0.008 0.072-0.004 0.147 0.024 0.22l0.495 1.326c0.072 0.191 0.254 0.315 0.456 0.315 0.017 0 0.035-0.001 0.053-0.003l2.408-0.266 5.285-0.115c0.099-0.003 0.193-0.033 0.274-0.091l1.697-1.22c0.142-0.102 0.217-0.271 0.199-0.445-0.018-0.173-0.128-0.323-0.288-0.395l-3.703-1.629-0.124-0.036c-0.002-0.001-0.007-0.003-0.009-0.004-0.004-0.001-0.007 0-0.01-0.001l-3.489-1.007-4.896-16.034c-0.019-0.059-0.048-0.114-0.086-0.162l-2.059-2.578 1.934-0.732c0.165-0.063 0.282-0.21 0.309-0.382 0.025-0.175-0.044-0.349-0.184-0.457l-8.311-6.478-4.36-5.727 2.942-6.708 3.555 3.275c0.67 0.417 1.406 0.583 2.154 0.583 2.407 0 4.948-1.729 5.886-2.437 0.088 0.036 0.181 0.064 0.28 0.081 0.393 0.065 0.8 0.195 1.231 0.333 0.667 0.212 1.36 0.433 2.083 0.433l0 0c0.243 0 0.479-0.026 0.701-0.076 0.968-0.218 2.171-0.489 3.308-0.804 0.826-0.232 1.531-0.848 1.985-1.734 0.561-1.097 0.668-2.433 0.279-3.485-0.578-1.573-1.494-2.632-2.72-3.149-0.274-0.115-0.569-0.155-0.864-0.121-0.634 0.077-1.199 0.471-1.697 0.82-0.031 0.022-0.062 0.043-0.091 0.064l-0.808-1.09c-0.083-0.113-0.211-0.184-0.352-0.195-0.012-0.001-0.104-0.005-0.116-0.005-1.331 0-2.249 1.793-2.798 3.38l-1.732 0.847c-0.167 0.083-0.272 0.252-0.272 0.438 0 0.104 0.002 0.276 0.014 0.485l-3.459 1.532-4.237-5.579c0.018-0.037 0.039-0.072 0.048-0.114l0.742-3.681c0.034-0.17-0.024-0.344-0.152-0.459l-2.665-2.389 1.427 0.438c0.046 0.014 0.094 0.021 0.142 0.021 0.088 0 0.174-0.023 0.251-0.069 0.117-0.071 0.199-0.189 0.227-0.324l0.287-1.48c0.786-0.343 1.396-0.839 1.869-1.388 0.01 0.093 0.004 0.175 0.017 0.271 0.016 0.059 0.425 1.436 1.605 1.892 0.741 0.287 1.582 0.146 2.498-0.414l2.084 1.812c0.091 0.08 0.205 0.12 0.319 0.12 0.08 0 0.16-0.019 0.233-0.059l1.746-0.943 1.08 0.263c0.091 0.022 0.177 0.009 0.262-0.018l11.774 4.668 2.469 4.829c0.075 0.294 0.155 0.579 0.251 0.841 0.054 0.148 0.181 0.234 0.322 0.278l4.505 8.811 0.037 2.981c0 0.041 0.015 0.078 0.024 0.116 0.004 0.014 0 0.027 0.004 0.04l5.505 15.596c0.061 0.172 0.214 0.271 0.382 0.301l-0.027 2.53 0.353 15.188c-0.052 0.011-0.104 0.027-0.152 0.058l-0.087 0.056c-0.023 0.01-0.047 0.011-0.069 0.024-0.03 0.019-0.052 0.045-0.077 0.069l-3.246 2.075c-0.016 0.009-0.031 0.011-0.046 0.021-0.004 0.003-0.024 0.021-0.032 0.027l-0.135 0.087-3.042 2.572c-0.133 0.113-0.195 0.288-0.164 0.46 0.031 0.171 0.153 0.313 0.317 0.37l1.976 0.69c0.052 0.017 0.104 0.026 0.158 0.026 0.044 0 0.087-0.006 0.129-0.018l5.06-1.375 2.428-0.434c0.22-0.039 0.384-0.224 0.399-0.445l0.099-1.413c0.006-0.077-0.012-0.15-0.04-0.217 0.042-0.125 0.036-0.265-0.033-0.39-0.043-0.078-0.108-0.133-0.182-0.175 0.054-0.066 0.096-0.142 0.107-0.231l2.193-15.804 9.677 8.823 0.014 0.098c0 0.022-0.008 0.043-0.006 0.067 0.004 0.036 0.019 0.067 0.03 0.101l0.571 3.847c0 0.004-0.001 0.009 0 0.013 0 0.002 0.002 0.01 0.003 0.013l-0.857 2.231c-0.058 0.15-0.036 0.319 0.055 0.452 0.091 0.131 0.24 0.209 0.399 0.209 0.002 0 0.005 0 0.006 0l3.445-0.045c0.236-0.003 0.438-0.177 0.476-0.411l0.81-5.181 0.594-2.395C89.997 70.235 89.896 70.01 89.7 69.904zM58.729 29.568c-0.666-2.732-0.484-6.852-0.382-8.406l0.46 0.116 0.23 1.075c0.028 0.135 0.113 0.251 0.233 0.32 0.075 0.043 0.158 0.065 0.243 0.065 0.05 0 0.1-0.008 0.149-0.024l2.803-0.909c-1.029 0.675-2.617 2.12-2.444 4.533 0.01 0.13 0.07 0.252 0.17 0.337l1.956 1.651 4.052 4.128c0.094 0.095 0.22 0.146 0.348 0.146 0.027 0 0.054-0.008 0.083-0.013l4.192 4.823-7.353 1.429L58.729 29.568zM73.249 36.995c-0.042 0.1-0.161 0.337-0.38 0.415-0.237 0.086-0.602-0.025-1.026-0.311l-4.237-4.874c0.735-0.321 1.688-0.832 2.229-1.492l1.813 2.72c0.094 0.14 0.248 0.216 0.405 0.216 0.093 0 0.186-0.026 0.269-0.081 0.224-0.149 0.284-0.451 0.135-0.675l-1.988-2.981c-0.053-0.081-0.13-0.131-0.214-0.167 0.006-0.093 0.005-0.187-0.011-0.284l-0.229-3.363c-0.006-0.083-0.033-0.162-0.077-0.231l-2.686-4.137c0.288-0.212 0.512-0.461 0.667-0.702l5.553 2.437L73.249 36.995zM67.107 20.51c-0.189 0.313-0.626 0.806-1.502 0.761-0.073-0.005-0.142 0.01-0.206 0.035h-1.91c-0.063 0-0.124 0.013-0.183 0.036-0.009 0.004-0.26 0.11-0.614 0.323 0.041-0.044 0.079-0.092 0.102-0.15 0.298-0.75 0.99-2.256 1.837-3.577L67.107 20.51zM56.098 11.287c-0.311-0.05-0.623-0.106-0.938-0.177 0.342-0.169 0.71-0.32 1.091-0.458-0.045 0.065-0.092 0.116-0.135 0.188C56.03 10.981 56.034 11.146 56.098 11.287zM56.95 11.34c0.24-0.4 0.477-0.64 0.657-0.616 0.228 0.021 0.505 0.362 0.725 0.744-0.02 0-0.035 0.003-0.055 0.003-0.448 0-0.909-0.033-1.373-0.082C56.918 11.373 56.938 11.361 56.95 11.34zM59.396 11.408c-0.142-0.314-0.396-0.784-0.759-1.15 0.638-0.189 1.204-0.21 1.675-0.025 0.484 0.189 0.791 0.548 0.974 0.833C60.729 11.22 60.104 11.342 59.396 11.408zM62.234 10.756c-0.13-0.239-0.339-0.544-0.644-0.832 0.627 0.065 1.189 0.189 1.653 0.376C62.968 10.45 62.625 10.605 62.234 10.756zM56.228 16.234c1.287 0.043 1.562 0.285 1.577 0.285h0.001c0 0.034 0.003 0.067 0.01 0.1l0.646 3.025C56.948 18.662 56.387 16.885 56.228 16.234zM27.013 8.292c0.572-0.167 1.191-0.287 1.84-0.36-0.32 0.303-0.534 0.627-0.666 0.88C27.724 8.64 27.319 8.459 27.013 8.292zM30.089 8.264c0.471-0.197 1.041-0.186 1.686-0.006-0.356 0.369-0.602 0.841-0.738 1.158-0.707-0.055-1.339-0.164-1.896-0.308C29.317 8.822 29.616 8.462 30.089 8.264zM32.811 8.707c0.168-0.016 0.42 0.208 0.667 0.605 0.013 0.019 0.031 0.03 0.045 0.047-0.48 0.058-0.956 0.095-1.421 0.101C32.315 9.079 32.588 8.731 32.811 8.707zM34.305 8.798c-0.092-0.146-0.188-0.265-0.284-0.382 0.494 0.176 0.925 0.387 1.276 0.626-0.325 0.08-0.646 0.144-0.965 0.2C34.391 9.102 34.391 8.938 34.305 8.798zM25.902 16.018c1.09 1.644 1.885 3.532 1.896 3.562 0.004 0.008 0.01 0.012 0.013 0.019-1.793-0.351-2.961-1.222-3.602-1.875L25.902 16.018zM3.432 80.851c0.09-0.03 0.184-0.056 0.269-0.101 0.374-0.196 0.607-0.484 0.752-0.737l0.337 0.834L3.432 80.851zM20.04 61.905c-0.302 2.01-0.502 3.338-1.075 3.637L5.098 74.061c-0.089 0.056-0.146 0.138-0.184 0.228-0.138 0.071-0.243 0.197-0.265 0.361l-0.04 0.303c-2.069-0.238-2.389-1.065-2.437-1.35 0.039-0.018 0.075-0.033 0.108-0.061l11.848-9.806c0.116-0.096 0.18-0.24 0.176-0.39l-0.042-1.525c2.423-1.552 4.487-2.092 6.131-2.148C20.253 60.497 20.139 61.245 20.04 61.905zM27.954 56.174c-0.034-0.038-0.069-0.077-0.115-0.105-0.229-0.139-0.528-0.065-0.668 0.164l-2.189 3.611c-1.277-0.793-5.129-2.5-10.748 0.863l-0.386-13.85c0.097 0.111 0.179 0.233 0.286 0.338 0.85 0.821 1.946 1.281 3.113 1.352l10.778 7.6L27.954 56.174zM49.209 76.456l-0.821 0.019c0.205-0.464 0.285-0.896 0.242-1.298l1.462 0.645L49.209 76.456zM38.128 56.938l4.783 15.66c-0.046 0.052-1.017 2.426-1.389 2.552l-6.171-14.934c-0.037-0.086-0.094-0.158-0.17-0.212l-5.099-3.597 5.85-2.22L38.128 56.938zM29.988 46.504l7.679 5.984-8.544 3.242L18.07 47.938c-0.063-0.194-0.241-0.336-0.456-0.336-0.002 0-0.006 0-0.008 0-0.005 0-0.009-0.002-0.015-0.002l-0.244-0.173c-0.2-0.144-0.469-0.103-0.633 0.075-0.705-0.153-1.37-0.491-1.903-1.006-0.495-0.48-0.832-1.076-1.021-1.721l-0.001-0.013c-0.002-0.083-0.032-0.155-0.075-0.221-0.057-0.261-0.094-0.53-0.098-0.804-0.035-2.166 1.698-3.957 3.864-3.992 0.146-0.002 0.271-0.071 0.358-0.173 2.165 0.208 5.834 0.729 7.61 0.996l4.451 5.847C29.924 46.448 29.953 46.478 29.988 46.504zM35.828 33.559l3.515-1.557c0.105 0.724 0.308 1.54 0.703 2.114-1.263 0.917-4.57 3.037-6.685 1.727l-8.449-7.794c-0.079-0.073-0.178-0.117-0.284-0.127l-0.493-0.04c-1.403-0.345-2.4-1.596-2.423-3.041-0.014-0.85 0.304-1.655 0.896-2.266 0.592-0.611 1.385-0.955 2.235-0.968 0.017-0.001 0.035-0.001 0.052-0.001 1.324 0 2.517 0.827 2.982 2.069 0.016 0.045 0.038 0.086 0.068 0.124l7.299 9.61C35.379 33.588 35.623 33.649 35.828 33.559zM30.785 25.928l-2.023-2.662c-0.633-1.605-2.159-2.664-3.934-2.632-1.11 0.018-2.146 0.467-2.919 1.265-0.772 0.797-1.188 1.847-1.169 2.958 0.031 1.887 1.333 3.519 3.234 3.981l0.4 0.038 4.087 3.767-1.892 4.315-9.308-1.688c0.132-2.378 1.022-14.234 5.773-17.402 0.008 0.011 0.023 0.026 0.032 0.036 0.023 0.063 0.06 0.12 0.109 0.17 0.023 0.023 0.052 0.034 0.079 0.053 0.766 0.868 2.437 2.315 5.263 2.57l2.813 2.521L30.785 25.928zM32.097 17.644l0.603-3.111c0.058-0.085 0.458-0.284 1.581-0.34-0.037 0.165-0.1 0.398-0.193 0.675-0.071 0.145-0.125 0.304-0.176 0.461C33.585 16.101 33.025 17.022 32.097 17.644zM56.125 24.476c-0.055-0.104-0.145-0.187-0.253-0.23l-11.825-4.687 0.546-1.836 12.794 3.199c-0.073 1.018-0.213 3.514-0.029 5.962L56.125 24.476zM64.15 43.443c7.468 1.174 10.706-2.896 11.501-4.123 1.229 0.384 1.571 1.647 1.587 1.707l3.758 14.518-11.157 1.224 0.101-9.052c0.003-0.269-0.213-0.489-0.481-0.492-0.264-0.02-0.488 0.213-0.491 0.482L68.865 56.8 64.15 43.443zM64.587 82.135l-1.028-0.359 1.22-1.034c0.073 0.397 0.272 0.791 0.599 1.179L64.587 82.135zM71.57 78.298c-0.021 0.157 0.041 0.301 0.144 0.405-0.3 0.026-0.857-0.075-1.545-0.883 0 0 0-0.001 0-0.002l-0.382-16.419 0.04-3.652 4.666-0.511-0.58 4.179c-0.044 0.093-0.056 0.19-0.04 0.288L71.57 78.298zM75.445 57.456l11.918 12.398c-0.136 0.349-0.6 0.925-2.146 1.172-0.002-0.001-0.002-0.002-0.003-0.003-0.018-0.104-0.062-0.204-0.145-0.28L74.89 61.459 75.445 57.456zM85.325 77.5l0.341-0.888c0.1 0.084 0.207 0.163 0.339 0.229 0.271 0.138 0.572 0.206 0.9 0.206 0.257 0 0.535-0.057 0.824-0.14l-0.088 0.562L85.325 77.5z" data-fill-palette-color="quaternary"></path></svg></g></svg></g><g><rect width="63.534267349789715" height="4.833098252528466" y="68.23282932517257" x="166.86573265021025" fill="#8bd8bc" data-fill-palette-color="accent"></rect><rect width="63.534267349789715" height="4.833098252528466" y="68.23282932517257" x="0" fill="#8bd8bc" data-fill-palette-color="accent"></rect><rect width="63.534267349789715" height="4.833098252528466" y="58.56663282011564" x="166.86573265021025" fill="#8bd8bc" data-fill-palette-color="accent"></rect><rect width="63.534267349789715" height="4.833098252528466" y="58.56663282011564" x="0" fill="#8bd8bc" data-fill-palette-color="accent"></rect></g></svg></g></svg></g></svg></g><defs></defs></svg><rect width="384" height="360" fill="none" stroke="none" visibility="hidden"></rect></g></svg></g></svg>