<svg xmlns="http://www.w3.org/2000/svg" version="1.1" xmlns:xlink="http://www.w3.org/1999/xlink" xmlns:svgjs="http://svgjs.dev/svgjs" width="2000" height="979" viewBox="0 0 2000 979"><g transform="matrix(1,0,0,1,-1.2121212121213603,0.8808402814121337)"><svg viewBox="0 0 396 194" data-background-color="#ffffff" preserveAspectRatio="xMidYMid meet" height="979" width="2000" xmlns="http://www.w3.org/2000/svg" xmlns:xlink="http://www.w3.org/1999/xlink"><g id="tight-bounds" transform="matrix(1,0,0,1,0.24000000000003752,-0.1745485338038293)"><svg viewBox="0 0 395.5199999999999 194.34909706760766" height="194.34909706760766" width="395.5199999999999"><g><svg viewBox="0 0 409.0552577784537 200.99999999999997" height="194.34909706760766" width="395.5199999999999"><g><rect width="5.669175142205322" height="200.99999999999997" x="173.9698980988593" y="0" fill="#53c28b" opacity="1" stroke-width="0" stroke="transparent" fill-opacity="1" class="rect-qz-0" data-fill-palette-color="primary" rx="1%" id="qz-0" data-palette-color="#53c28b"></rect></g><g transform="matrix(1,0,0,1,194.47984586463875,0.4999999999999858)"><svg viewBox="0 0 214.57541191381495 200" height="200" width="214.57541191381495"><g id="textblocktransform"><svg viewBox="0 0 214.57541191381495 200" height="200" width="214.57541191381495" id="textblock"><g><svg viewBox="0 0 214.57541191381495 200" height="200" width="214.57541191381495"><g transform="matrix(1,0,0,1,0,0)"><svg width="214.57541191381495" viewBox="0.9000000000000048 -36.9 170.7 142.75" height="200" data-palette-color="#53c28b"><svg></svg><svg></svg><svg></svg><g class="wordmark-text-0" data-fill-palette-color="primary" id="text-0"><path d="M18.9 0.6v0c-2.867 0-5.34-0.5-7.42-1.5-2.087-1-3.813-2.36-5.18-4.08-1.367-1.713-2.373-3.653-3.02-5.82-0.653-2.167-0.98-4.4-0.98-6.7v0c0-2.5 0.367-4.91 1.1-7.23 0.733-2.313 1.81-4.387 3.23-6.22 1.413-1.833 3.187-3.283 5.32-4.35 2.133-1.067 4.6-1.6 7.4-1.6v0c1.167 0 2.443 0.14 3.83 0.42 1.38 0.287 2.703 0.713 3.97 1.28 1.267 0.567 2.3 1.317 3.1 2.25v0l-2.6 2.9c-0.967-1.067-2.257-1.89-3.87-2.47-1.62-0.587-3.13-0.88-4.53-0.88v0c-1.933 0-3.633 0.44-5.1 1.32-1.467 0.887-2.7 2.08-3.7 3.58-1 1.5-1.757 3.183-2.27 5.05-0.52 1.867-0.78 3.767-0.78 5.7v0c0 3 0.483 5.59 1.45 7.77 0.967 2.187 2.333 3.87 4.1 5.05 1.767 1.187 3.85 1.78 6.25 1.78v0c1.4 0 2.917-0.2 4.55-0.6 1.633-0.4 3.317-1.033 5.05-1.9v0l1.55 2.85c-0.967 0.7-2.123 1.3-3.47 1.8-1.353 0.5-2.73 0.893-4.13 1.18-1.4 0.28-2.683 0.42-3.85 0.42zM33.65-24.75l4.5-0.55c0.6 1.467 0.983 3.017 1.15 4.65v0c0.867-1.367 2.033-2.483 3.5-3.35 1.467-0.867 3.017-1.3 4.65-1.3v0l-1 4.4c-1.6 0-2.957 0.417-4.07 1.25-1.12 0.833-2.113 1.883-2.98 3.15v0 16.5h-4.15v-18c0-0.667-0.05-1.417-0.15-2.25-0.1-0.833-0.267-1.65-0.5-2.45-0.233-0.8-0.55-1.483-0.95-2.05zM62.15-25.45v0c2 0 3.683 0.407 5.05 1.22 1.367 0.82 2.393 1.953 3.08 3.4 0.68 1.453 1.02 3.147 1.02 5.08v0c0 0.467-0.023 0.94-0.07 1.42-0.053 0.487-0.113 0.997-0.18 1.53v0h-15.8c0 3.167 0.7 5.617 2.1 7.35 1.4 1.733 3.267 2.6 5.6 2.6v0c0.967 0 1.977-0.15 3.03-0.45 1.047-0.3 2.137-0.75 3.27-1.35v0l1.55 2.5c-1.167 0.933-2.483 1.633-3.95 2.1-1.467 0.467-2.95 0.7-4.45 0.7v0c-2.6 0-4.757-0.617-6.47-1.85-1.72-1.233-2.997-2.833-3.83-4.8-0.833-1.967-1.25-4.017-1.25-6.15v0c0-1.667 0.233-3.283 0.7-4.85 0.467-1.567 1.177-2.993 2.13-4.28 0.947-1.28 2.12-2.297 3.52-3.05 1.4-0.747 3.05-1.12 4.95-1.12zM61.75-22.3v0c-1.133 0-2.133 0.317-3 0.95-0.867 0.633-1.567 1.44-2.1 2.42-0.533 0.987-0.9 1.997-1.1 3.03v0h11.4c0.033-1.4-0.157-2.577-0.57-3.53-0.42-0.947-1.02-1.663-1.8-2.15-0.787-0.48-1.73-0.72-2.83-0.72zM86-25.45v0c2.633 0 4.617 0.717 5.95 2.15 1.333 1.433 2 3.45 2 6.05v0 12.45c0 0.7 0.133 1.173 0.4 1.42 0.267 0.253 0.583 0.38 0.95 0.38v0c0.3 0 0.617-0.043 0.95-0.13 0.333-0.08 0.65-0.187 0.95-0.32v0l0.9 2.7c-0.533 0.3-1.207 0.577-2.02 0.83-0.82 0.247-1.663 0.37-2.53 0.37v0c-0.867 0-1.65-0.243-2.35-0.73-0.7-0.48-1.133-1.37-1.3-2.67v0c-0.967 1.033-2.1 1.873-3.4 2.52-1.3 0.653-2.667 0.98-4.1 0.98v0c-1.967 0-3.6-0.583-4.9-1.75-1.3-1.167-1.95-2.767-1.95-4.8v0c0-1.9 0.46-3.417 1.38-4.55 0.913-1.133 2.103-1.983 3.57-2.55 1.467-0.567 3.027-0.95 4.68-1.15 1.647-0.2 3.187-0.3 4.62-0.3v0-2.65c0-1.4-0.283-2.583-0.85-3.55-0.567-0.967-1.667-1.45-3.3-1.45v0c-1.267 0-2.483 0.25-3.65 0.75-1.167 0.5-2.333 1.233-3.5 2.2v0l-2.05-2.95c1.367-1.1 2.867-1.917 4.5-2.45 1.633-0.533 3.317-0.8 5.05-0.8zM89.8-9.7v-1.6c-0.9 0-1.917 0.04-3.05 0.12-1.133 0.087-2.233 0.287-3.3 0.6-1.067 0.32-1.94 0.83-2.62 1.53-0.687 0.7-1.03 1.667-1.03 2.9v0c0 1.1 0.377 1.907 1.13 2.42 0.747 0.52 1.687 0.78 2.82 0.78v0c1.2 0 2.25-0.333 3.15-1 0.9-0.667 1.61-1.517 2.13-2.55 0.513-1.033 0.77-2.1 0.77-3.2zM104.85-31.95h3.05c-0.233 1.133-0.44 2.307-0.62 3.52-0.187 1.22-0.313 2.413-0.38 3.58v0h6.5l-0.85 3.15h-5.65v15.9c0 0.633 0.077 1.19 0.23 1.67 0.147 0.487 0.413 0.853 0.8 1.1 0.38 0.253 0.92 0.38 1.62 0.38v0c0.533 0 1.067-0.05 1.6-0.15 0.533-0.1 1.05-0.217 1.55-0.35v0l0.7 2.8c-0.833 0.233-1.623 0.443-2.37 0.63-0.753 0.18-1.613 0.27-2.58 0.27v0c-2.133 0-3.617-0.567-4.45-1.7-0.833-1.133-1.25-2.717-1.25-4.75v0-15.8h-3.7v-2.5c1.333-0.033 2.383-0.477 3.15-1.33 0.767-0.847 1.35-1.87 1.75-3.07 0.4-1.2 0.7-2.317 0.9-3.35zM123.65-33.2v0c0 0.833-0.29 1.55-0.87 2.15-0.587 0.6-1.313 0.9-2.18 0.9v0c-0.833 0-1.54-0.3-2.12-0.9-0.587-0.6-0.88-1.317-0.88-2.15v0c0-0.833 0.293-1.55 0.88-2.15 0.58-0.6 1.287-0.9 2.12-0.9v0c0.833 0 1.55 0.3 2.15 0.9 0.6 0.6 0.9 1.317 0.9 2.15zM118-24.85h4.75v24.85h-4.15v-21.9zM127.55-24.85h4.4l5.4 15.4c0.233 0.633 0.45 1.25 0.65 1.85 0.2 0.6 0.4 1.317 0.6 2.15v0c0.2-0.8 0.393-1.493 0.58-2.08 0.18-0.58 0.37-1.153 0.57-1.72v0l5.45-15.6h3.9l-8.9 25.15h-3.8zM162.45-25.45v0c2 0 3.683 0.407 5.05 1.22 1.367 0.82 2.39 1.953 3.07 3.4 0.687 1.453 1.03 3.147 1.03 5.08v0c0 0.467-0.027 0.94-0.08 1.42-0.047 0.487-0.103 0.997-0.17 1.53v0h-15.8c0 3.167 0.7 5.617 2.1 7.35 1.4 1.733 3.267 2.6 5.6 2.6v0c0.967 0 1.973-0.15 3.02-0.45 1.053-0.3 2.147-0.75 3.28-1.35v0l1.55 2.5c-1.167 0.933-2.483 1.633-3.95 2.1-1.467 0.467-2.95 0.7-4.45 0.7v0c-2.6 0-4.76-0.617-6.48-1.85-1.713-1.233-2.987-2.833-3.82-4.8-0.833-1.967-1.25-4.017-1.25-6.15v0c0-1.667 0.233-3.283 0.7-4.85 0.467-1.567 1.173-2.993 2.12-4.28 0.953-1.28 2.13-2.297 3.53-3.05 1.4-0.747 3.05-1.12 4.95-1.12zM162.05-22.3v0c-1.133 0-2.133 0.317-3 0.95-0.867 0.633-1.567 1.44-2.1 2.42-0.533 0.987-0.9 1.997-1.1 3.03v0h11.4c0.033-1.4-0.16-2.577-0.58-3.53-0.413-0.947-1.01-1.663-1.79-2.15-0.787-0.48-1.73-0.72-2.83-0.72z" fill="#53c28b" fill-rule="nonzero" stroke="none" stroke-width="1" stroke-linecap="butt" stroke-linejoin="miter" stroke-miterlimit="10" stroke-dasharray="" stroke-dashoffset="0" font-family="none" font-weight="none" font-size="none" text-anchor="none" style="mix-blend-mode: normal" data-fill-palette-color="primary" opacity="1"></path><path transform="translate(0,52.6)" d="M32.65-18.1v0c0 3.5-0.59 6.607-1.77 9.32-1.187 2.72-2.997 4.863-5.43 6.43-2.433 1.567-5.533 2.35-9.3 2.35v0h-11.85v-33.1c0-0.033-0.057-0.3-0.17-0.8-0.12-0.5-0.23-1.017-0.33-1.55-0.1-0.533-0.167-0.85-0.2-0.95v0h9.35c4.067 0 7.567 0.607 10.5 1.82 2.933 1.22 5.2 3.17 6.8 5.85 1.6 2.687 2.4 6.23 2.4 10.63zM27.8-18.2v0c0-2.633-0.323-4.883-0.97-6.75-0.653-1.867-1.62-3.393-2.9-4.58-1.287-1.18-2.87-2.047-4.75-2.6-1.887-0.547-4.08-0.82-6.58-0.82v0h-3.65v29.5h6.6c3.033 0 5.443-0.667 7.23-2 1.78-1.333 3.063-3.117 3.85-5.35 0.78-2.233 1.17-4.7 1.17-7.4zM44.2-33.2v0c0 0.833-0.29 1.55-0.87 2.15-0.587 0.6-1.313 0.9-2.18 0.9v0c-0.833 0-1.54-0.3-2.12-0.9-0.587-0.6-0.88-1.317-0.88-2.15v0c0-0.833 0.293-1.55 0.88-2.15 0.58-0.6 1.287-0.9 2.12-0.9v0c0.833 0 1.55 0.3 2.15 0.9 0.6 0.6 0.9 1.317 0.9 2.15zM38.55-24.85h4.75v24.85h-4.15v-21.9zM58.5-25.45v0c0.967 0 1.89 0.117 2.77 0.35 0.887 0.233 1.797 0.35 2.73 0.35v0c1.267 0 2.55-0.077 3.85-0.23 1.3-0.147 2.667-0.32 4.1-0.52v0l-0.9 3.6h-4c-0.233 0-0.473-0.01-0.72-0.03-0.253-0.013-0.497-0.037-0.73-0.07v0c0.567 0.767 0.993 1.567 1.28 2.4 0.28 0.833 0.42 1.683 0.42 2.55v0c0 1.667-0.367 3.167-1.1 4.5-0.733 1.333-1.807 2.373-3.22 3.12-1.42 0.753-3.147 1.13-5.18 1.13v0c-0.833 0-1.567 0.217-2.2 0.65-0.633 0.433-0.95 1.1-0.95 2v0c0 0.6 0.16 1.023 0.48 1.27 0.313 0.253 0.703 0.397 1.17 0.43 0.467 0.033 0.933 0.05 1.4 0.05v0h4.85c0.867 0 1.757 0.057 2.67 0.17 0.92 0.12 1.763 0.353 2.53 0.7 0.767 0.353 1.393 0.87 1.88 1.55 0.48 0.687 0.72 1.613 0.72 2.78v0c0 1.833-0.367 3.4-1.1 4.7-0.733 1.3-1.717 2.36-2.95 3.18-1.233 0.813-2.617 1.403-4.15 1.77-1.533 0.367-3.083 0.55-4.65 0.55v0c-0.933 0-1.917-0.107-2.95-0.32-1.033-0.22-2.007-0.57-2.92-1.05-0.92-0.487-1.663-1.13-2.23-1.93-0.567-0.8-0.85-1.8-0.85-3v0c0-1.267 0.393-2.383 1.18-3.35 0.78-0.967 1.687-1.783 2.72-2.45v0-0.15c-0.733-0.367-1.307-0.873-1.72-1.52-0.42-0.653-0.63-1.347-0.63-2.08v0c0-0.433 0.167-0.843 0.5-1.23 0.333-0.38 0.76-0.887 1.28-1.52 0.513-0.633 1.07-1.5 1.67-2.6v0c-1.167-0.8-2.1-1.827-2.8-3.08-0.7-1.247-1.05-2.587-1.05-4.02v0c0-1.633 0.4-3.1 1.2-4.4 0.8-1.3 1.877-2.333 3.23-3.1 1.347-0.767 2.803-1.15 4.37-1.15zM58.55-22.45v0c-1.233 0-2.29 0.54-3.17 1.62-0.887 1.087-1.33 2.413-1.33 3.98v0c0 1.6 0.443 2.94 1.33 4.02 0.88 1.087 1.92 1.63 3.12 1.63v0c1.367 0 2.457-0.517 3.27-1.55 0.82-1.033 1.23-2.383 1.23-4.05v0c0-1.6-0.443-2.943-1.33-4.03-0.88-1.08-1.92-1.62-3.12-1.62zM61.4 0.05h-6c-0.633 0.467-1.217 1.11-1.75 1.93-0.533 0.813-0.8 1.603-0.8 2.37v0c0 0.8 0.293 1.483 0.88 2.05 0.58 0.567 1.297 0.993 2.15 1.28 0.847 0.28 1.637 0.42 2.37 0.42v0c1.167 0 2.39-0.167 3.67-0.5 1.287-0.333 2.37-0.89 3.25-1.67 0.887-0.787 1.33-1.847 1.33-3.18v0c0-0.867-0.267-1.49-0.8-1.87-0.533-0.387-1.19-0.62-1.97-0.7-0.787-0.087-1.563-0.13-2.33-0.13zM80.6-33.2v0c0 0.833-0.293 1.55-0.88 2.15-0.58 0.6-1.303 0.9-2.17 0.9v0c-0.833 0-1.543-0.3-2.13-0.9-0.58-0.6-0.87-1.317-0.87-2.15v0c0-0.833 0.29-1.55 0.87-2.15 0.587-0.6 1.297-0.9 2.13-0.9v0c0.833 0 1.55 0.3 2.15 0.9 0.6 0.6 0.9 1.317 0.9 2.15zM74.95-24.85h4.75v24.85h-4.15v-21.9zM90.7-31.95h3.05c-0.233 1.133-0.443 2.307-0.63 3.52-0.18 1.22-0.303 2.413-0.37 3.58v0h6.5l-0.85 3.15h-5.65v15.9c0 0.633 0.073 1.19 0.22 1.67 0.153 0.487 0.42 0.853 0.8 1.1 0.387 0.253 0.93 0.38 1.63 0.38v0c0.533 0 1.067-0.05 1.6-0.15 0.533-0.1 1.05-0.217 1.55-0.35v0l0.7 2.8c-0.833 0.233-1.623 0.443-2.37 0.63-0.753 0.18-1.613 0.27-2.58 0.27v0c-2.133 0-3.617-0.567-4.45-1.7-0.833-1.133-1.25-2.717-1.25-4.75v0-15.8h-3.7v-2.5c1.333-0.033 2.383-0.477 3.15-1.33 0.767-0.847 1.35-1.87 1.75-3.07 0.4-1.2 0.7-2.317 0.9-3.35zM112.9-25.45v0c2.633 0 4.617 0.717 5.95 2.15 1.333 1.433 2 3.45 2 6.05v0 12.45c0 0.7 0.133 1.173 0.4 1.42 0.267 0.253 0.583 0.38 0.95 0.38v0c0.3 0 0.617-0.043 0.95-0.13 0.333-0.08 0.65-0.187 0.95-0.32v0l0.9 2.7c-0.533 0.3-1.21 0.577-2.03 0.83-0.813 0.247-1.653 0.37-2.52 0.37v0c-0.867 0-1.65-0.243-2.35-0.73-0.7-0.48-1.133-1.37-1.3-2.67v0c-0.967 1.033-2.1 1.873-3.4 2.52-1.3 0.653-2.667 0.98-4.1 0.98v0c-1.967 0-3.6-0.583-4.9-1.75-1.3-1.167-1.95-2.767-1.95-4.8v0c0-1.9 0.46-3.417 1.38-4.55 0.913-1.133 2.103-1.983 3.57-2.55 1.467-0.567 3.027-0.95 4.68-1.15 1.647-0.2 3.187-0.3 4.62-0.3v0-2.65c0-1.4-0.283-2.583-0.85-3.55-0.567-0.967-1.667-1.45-3.3-1.45v0c-1.267 0-2.483 0.25-3.65 0.75-1.167 0.5-2.333 1.233-3.5 2.2v0l-2.05-2.95c1.367-1.1 2.867-1.917 4.5-2.45 1.633-0.533 3.317-0.8 5.05-0.8zM116.7-9.7v-1.6c-0.9 0-1.917 0.04-3.05 0.12-1.133 0.087-2.233 0.287-3.3 0.6-1.067 0.32-1.943 0.83-2.63 1.53-0.68 0.7-1.02 1.667-1.02 2.9v0c0 1.1 0.377 1.907 1.13 2.42 0.747 0.52 1.687 0.78 2.82 0.78v0c1.2 0 2.25-0.333 3.15-1 0.9-0.667 1.607-1.517 2.12-2.55 0.52-1.033 0.78-2.1 0.78-3.2zM128.5-38.1h4.8v38.1h-4.15v-35.2z" fill="#53c28b" fill-rule="nonzero" stroke="none" stroke-width="1" stroke-linecap="butt" stroke-linejoin="miter" stroke-miterlimit="10" stroke-dasharray="" stroke-dashoffset="0" font-family="none" font-weight="none" font-size="none" text-anchor="none" style="mix-blend-mode: normal" data-fill-palette-color="primary" opacity="1"></path><path transform="translate(0,105.2)" d="M13.55-36.4h4.55l12.6 36.4h-5.15l-4.2-12.5h-12l-4.25 12.5h-4.2zM20.2-15.9l-4.8-14.4-4.9 14.4zM30.15-24.85h4.4l5.4 15.4c0.233 0.633 0.45 1.25 0.65 1.85 0.2 0.6 0.4 1.317 0.6 2.15v0c0.2-0.8 0.393-1.493 0.58-2.08 0.18-0.58 0.37-1.153 0.57-1.72v0l5.45-15.6h3.9l-8.9 25.15h-3.8zM65.05-25.45v0c2 0 3.683 0.407 5.05 1.22 1.367 0.82 2.39 1.953 3.07 3.4 0.687 1.453 1.03 3.147 1.03 5.08v0c0 0.467-0.023 0.94-0.07 1.42-0.053 0.487-0.113 0.997-0.18 1.53v0h-15.8c0 3.167 0.7 5.617 2.1 7.35 1.4 1.733 3.267 2.6 5.6 2.6v0c0.967 0 1.977-0.15 3.03-0.45 1.047-0.3 2.137-0.75 3.27-1.35v0l1.55 2.5c-1.167 0.933-2.483 1.633-3.95 2.1-1.467 0.467-2.95 0.7-4.45 0.7v0c-2.6 0-4.76-0.617-6.48-1.85-1.713-1.233-2.987-2.833-3.82-4.8-0.833-1.967-1.25-4.017-1.25-6.15v0c0-1.667 0.233-3.283 0.7-4.85 0.467-1.567 1.173-2.993 2.12-4.28 0.953-1.28 2.13-2.297 3.53-3.05 1.4-0.747 3.05-1.12 4.95-1.12zM64.65-22.3v0c-1.133 0-2.133 0.317-3 0.95-0.867 0.633-1.567 1.44-2.1 2.42-0.533 0.987-0.9 1.997-1.1 3.03v0h11.4c0.033-1.4-0.157-2.577-0.57-3.53-0.42-0.947-1.023-1.663-1.81-2.15-0.78-0.48-1.72-0.72-2.82-0.72zM78.6-24.65l4.55-0.6c0.233 0.567 0.433 1.15 0.6 1.75 0.167 0.6 0.283 1.2 0.35 1.8v0c1-1 2.183-1.877 3.55-2.63 1.367-0.747 2.767-1.12 4.2-1.12v0c1.833 0 3.31 0.383 4.43 1.15 1.113 0.767 1.92 1.807 2.42 3.12 0.5 1.32 0.75 2.847 0.75 4.58v0 16.6h-4.1v-15.25c0-1.033-0.073-2.05-0.22-3.05-0.153-1-0.52-1.827-1.1-2.48-0.587-0.647-1.547-0.97-2.88-0.97v0c-0.8 0-1.617 0.157-2.45 0.47-0.833 0.32-1.617 0.73-2.35 1.23-0.733 0.5-1.4 1.033-2 1.6v0 18.45h-4.1v-17.6c0-0.667-0.05-1.443-0.15-2.33-0.1-0.88-0.267-1.747-0.5-2.6-0.233-0.847-0.567-1.553-1-2.12zM106.95-24.85h4.8v15.3c0 0.967 0.083 1.957 0.25 2.97 0.167 1.02 0.543 1.863 1.13 2.53 0.58 0.667 1.503 1 2.77 1v0c1.233 0 2.357-0.267 3.37-0.8 1.02-0.533 1.847-1.277 2.48-2.23 0.633-0.947 0.95-2.053 0.95-3.32v0-12.5c0-0.033-0.05-0.277-0.15-0.73-0.1-0.447-0.2-0.913-0.3-1.4-0.1-0.48-0.167-0.753-0.2-0.82v0h4.8v20c0 0.633 0.107 1.1 0.32 1.4 0.22 0.3 0.563 0.45 1.03 0.45v0c0.467 0 1.1-0.15 1.9-0.45v0l0.9 2.7c-0.667 0.367-1.407 0.66-2.22 0.88-0.82 0.213-1.597 0.32-2.33 0.32v0c-0.867 0-1.633-0.25-2.3-0.75-0.667-0.5-1.1-1.383-1.3-2.65v0c-0.967 1-2.123 1.85-3.47 2.55-1.353 0.7-2.747 1.05-4.18 1.05v0c-1.833 0-3.31-0.383-4.43-1.15-1.113-0.767-1.92-1.81-2.42-3.13-0.5-1.313-0.75-2.837-0.75-4.57v0-13.7zM144.75-25.45v0c2 0 3.683 0.407 5.05 1.22 1.367 0.82 2.393 1.953 3.08 3.4 0.68 1.453 1.02 3.147 1.02 5.08v0c0 0.467-0.027 0.94-0.08 1.42-0.047 0.487-0.103 0.997-0.17 1.53v0h-15.8c0 3.167 0.7 5.617 2.1 7.35 1.4 1.733 3.267 2.6 5.6 2.6v0c0.967 0 1.973-0.15 3.02-0.45 1.053-0.3 2.147-0.75 3.28-1.35v0l1.55 2.5c-1.167 0.933-2.483 1.633-3.95 2.1-1.467 0.467-2.95 0.7-4.45 0.7v0c-2.6 0-4.757-0.617-6.47-1.85-1.72-1.233-2.997-2.833-3.83-4.8-0.833-1.967-1.25-4.017-1.25-6.15v0c0-1.667 0.233-3.283 0.7-4.85 0.467-1.567 1.177-2.993 2.13-4.28 0.947-1.28 2.12-2.297 3.52-3.05 1.4-0.747 3.05-1.12 4.95-1.12zM144.35-22.3v0c-1.133 0-2.133 0.317-3 0.95-0.867 0.633-1.567 1.44-2.1 2.42-0.533 0.987-0.9 1.997-1.1 3.03v0h11.4c0.033-1.4-0.16-2.577-0.58-3.53-0.413-0.947-1.01-1.663-1.79-2.15-0.787-0.48-1.73-0.72-2.83-0.72z" fill="#53c28b" fill-rule="nonzero" stroke="none" stroke-width="1" stroke-linecap="butt" stroke-linejoin="miter" stroke-miterlimit="10" stroke-dasharray="" stroke-dashoffset="0" font-family="none" font-weight="none" font-size="none" text-anchor="none" style="mix-blend-mode: normal" data-fill-palette-color="primary" opacity="1"></path></g></svg></g></svg></g></svg></g></svg></g><g transform="matrix(1,0,0,1,0,22.78577593067469)"><svg viewBox="0 0 159.12912547528515 155.4284481386506" height="155.4284481386506" width="159.12912547528515"><g><svg xmlns="http://www.w3.org/2000/svg" xmlns:xlink="http://www.w3.org/1999/xlink" version="1.1" x="0" y="0" viewBox="7 8 86 84" style="enable-background:new 0 0 100 100;" xml:space="preserve" height="155.4284481386506" width="159.12912547528515" class="icon-icon-0" data-fill-palette-color="accent" id="icon-0"><g fill="#53c28b" data-fill-palette-color="accent"><path d="M81 8c-6.6 0-12 5.4-12 12s5.4 12 12 12 12-5.4 12-12S87.6 8 81 8zM81 24c-2.2 0-4-1.8-4-4s1.8-4 4-4 4 1.8 4 4S83.2 24 81 24z" fill="#53c28b" data-fill-palette-color="accent"></path><path d="M81 38c-1.9 0-3.8 0.5-5.4 1.3L61 24.7c0.6-1.5 1-3 1-4.7 0-6.6-5.4-12-12-12s-12 5.4-12 12 5.4 12 12 12c2 0 3.9-0.5 5.6-1.4l14.5 14.5C69.4 46.6 69 48.2 69 50c0 6.6 5.4 12 12 12s12-5.4 12-12S87.6 38 81 38zM46 20c0-2.2 1.8-4 4-4s4 1.8 4 4-1.8 4-4 4S46 22.2 46 20zM81 54c-2.2 0-4-1.8-4-4s1.8-4 4-4 4 1.8 4 4S83.2 54 81 54z" fill="#53c28b" data-fill-palette-color="accent"></path><path d="M62 50c0-6.6-5.4-12-12-12s-12 5.4-12 12 5.4 12 12 12S62 56.6 62 50zM46 50c0-2.2 1.8-4 4-4s4 1.8 4 4-1.8 4-4 4S46 52.2 46 50z" fill="#53c28b" data-fill-palette-color="accent"></path><path d="M19 92c6.6 0 12-5.4 12-12s-5.4-12-12-12S7 73.4 7 80 12.4 92 19 92zM19 76c2.2 0 4 1.8 4 4s-1.8 4-4 4-4-1.8-4-4S16.8 76 19 76z" fill="#53c28b" data-fill-palette-color="accent"></path><path d="M81 68c-5.2 0-9.6 3.3-11.3 8h-8.4c-1.7-4.7-6.1-8-11.3-8-3 0-5.7 1.1-7.7 2.8L28.6 57.2c1.5-2 2.4-4.5 2.4-7.2 0-5.2-3.3-9.6-8-11.3v-7.4c4.7-1.7 8-6.1 8-11.3 0-6.6-5.4-12-12-12S7 13.4 7 20c0 5.2 3.3 9.6 8 11.3v7.4c-4.7 1.7-8 6.1-8 11.3 0 6.6 5.4 12 12 12 1 0 1.9-0.1 2.8-0.3l16.4 16.4C38.1 78.7 38 79.3 38 80c0 6.6 5.4 12 12 12 5.2 0 9.6-3.3 11.3-8h8.4c1.7 4.7 6.1 8 11.3 8 6.6 0 12-5.4 12-12S87.6 68 81 68zM19 16c2.2 0 4 1.8 4 4s-1.8 4-4 4-4-1.8-4-4S16.8 16 19 16zM15 50c0-2.2 1.8-4 4-4s4 1.8 4 4-1.8 4-4 4S15 52.2 15 50zM50 84c-2.2 0-4-1.8-4-4s1.8-4 4-4 4 1.8 4 4S52.2 84 50 84zM81 84c-2.2 0-4-1.8-4-4s1.8-4 4-4 4 1.8 4 4S83.2 84 81 84z" fill="#53c28b" data-fill-palette-color="accent"></path></g></svg></g></svg></g></svg></g><defs></defs></svg><rect width="395.5199999999999" height="194.34909706760766" fill="none" stroke="none" visibility="hidden"></rect></g></svg></g></svg>